<svg width="22" height="19" viewBox="0 0 22 19" fill="none" xmlns="http://www.w3.org/2000/svg">
<path d="M11 18.5C6 18.5 1.73 15.39 0 11C1.73 6.61 6 3.5 11 3.5C11.36 3.5 11.72 3.5 12.08 3.55C12.0286 3.86409 12.0018 4.18173 12 4.5C12 4.86 12.04 5.22 12.1 5.58C11.74 5.54 11.37 5.5 11 5.5C7.24 5.5 3.83 7.64 2.18 11C2.98825 12.6503 4.24331 14.0407 5.80248 15.0133C7.36165 15.9858 9.1624 16.5013 11 16.5013C12.8376 16.5013 14.6383 15.9858 16.1975 15.0133C17.7567 14.0407 19.0117 12.6503 19.82 11C19.7 10.76 19.56 10.55 19.43 10.32C20.09 10.16 20.72 9.89 21.29 9.5C21.56 10 21.8 10.5 22 11C20.27 15.39 16 18.5 11 18.5ZM11 14C10.2044 14 9.44129 13.6839 8.87868 13.1213C8.31607 12.5587 8 11.7956 8 11C8 10.2044 8.31607 9.44129 8.87868 8.87868C9.44129 8.31607 10.2044 8 11 8C11.7956 8 12.5587 8.31607 13.1213 8.87868C13.6839 9.44129 14 10.2044 14 11C14 11.7956 13.6839 12.5587 13.1213 13.1213C12.5587 13.6839 11.7956 14 11 14ZM17 8.5V5.5H14V3.5H17V0.5H19V3.5H22V5.5H19V8.5H17Z" fill="#0A66C2"/>
</svg>
