<svg width="66" height="16" viewBox="0 0 66 16" fill="none" xmlns="http://www.w3.org/2000/svg">
<g clip-path="url(#clip0)">
<path d="M65.0419 14.9671C65.0825 14.9675 65.1227 14.9597 65.16 14.944C65.1974 14.9283 65.2311 14.9052 65.259 14.8761C65.287 14.8469 65.3087 14.8124 65.3227 14.7746C65.3366 14.7368 65.3426 14.6965 65.3403 14.6563C65.3403 14.4359 65.2064 14.3306 64.9317 14.3306H64.4878V15.4847H64.6547V14.9816H64.8599L64.8646 14.9877L65.183 15.4847H65.3615L65.019 14.9703L65.0419 14.9671ZM64.8488 14.8515H64.6552V14.4614H64.9006C65.0274 14.4614 65.1719 14.4819 65.1719 14.6468C65.1719 14.8363 65.0256 14.8515 64.8478 14.8515" fill="#0A66C2"/>
<path d="M0 2.34814H2.46438V11.2634H7.02667V13.5221H0V2.34814Z" fill="#0A66C2"/>
<path d="M8.11616 5.9459H10.4836V13.518H8.11616V5.9459ZM9.29989 2.1814C9.57151 2.18144 9.83701 2.26148 10.0628 2.41139C10.2886 2.5613 10.4646 2.77434 10.5685 3.02358C10.6724 3.27282 10.6996 3.54707 10.6466 3.81164C10.5936 4.07621 10.4628 4.31923 10.2707 4.50996C10.0786 4.70069 9.83388 4.83058 9.56748 4.88319C9.30108 4.9358 9.02495 4.90877 8.77401 4.80553C8.52308 4.70228 8.3086 4.52745 8.15771 4.30315C8.00681 4.07885 7.92627 3.81515 7.92627 3.54539C7.92627 3.36624 7.9618 3.18886 8.03084 3.02335C8.09987 2.85785 8.20105 2.70747 8.32861 2.58081C8.45616 2.45415 8.60759 2.35369 8.77425 2.28515C8.9409 2.21662 9.11952 2.18136 9.29989 2.1814Z" fill="#0A66C2"/>
<path d="M20.387 2.34644H22.7544V9.02433L25.4375 5.94243H28.3401L25.2329 9.44805L28.2748 13.5212H25.2992L22.786 9.77821H22.7549V13.5207H20.3875L20.387 2.34644Z" fill="#0A66C2"/>
<path d="M11.7964 5.94645H14.0699V6.98126H14.1022C14.3293 6.59487 14.6578 6.27698 15.0526 6.06155C15.4474 5.84613 15.8937 5.74124 16.3439 5.7581C18.7446 5.7581 19.1865 7.32685 19.1865 9.36488V13.5173H16.8191V9.83587C16.8191 8.95708 16.8028 7.82748 15.586 7.82748C14.3555 7.82748 14.1656 8.7844 14.1656 9.77194V13.5164H11.7981L11.7964 5.94645Z" fill="#0A66C2"/>
<path d="M33.326 8.85112C33.3305 8.66036 33.296 8.47067 33.2246 8.29355C33.1531 8.11643 33.0462 7.95555 32.9103 7.82067C32.7744 7.68579 32.6124 7.57972 32.434 7.50887C32.2556 7.43802 32.0646 7.40388 31.8725 7.40851C31.4588 7.38294 31.0516 7.51985 30.7387 7.78971C30.4257 8.05957 30.2321 8.44077 30.1995 8.85112H33.326ZM35.3315 12.2066C34.938 12.6804 34.4435 13.0614 33.8835 13.3219C33.3236 13.5825 32.7123 13.7161 32.094 13.7131C29.7265 13.7131 27.8311 12.1437 27.8311 9.71325C27.8311 7.28286 29.7263 5.71411 32.094 5.71411C34.3068 5.71411 35.6945 7.28163 35.6945 9.71325V10.4505H30.1995C30.2679 10.8686 30.4862 11.248 30.814 11.519C31.1419 11.7899 31.5573 11.934 31.9837 11.9247C32.3207 11.9226 32.6518 11.8369 32.9469 11.6753C33.242 11.5136 33.4917 11.2813 33.6733 10.9994L35.3315 12.2066Z" fill="#0A66C2"/>
<path d="M40.6291 7.77619C39.4454 7.77619 38.7351 8.56118 38.7351 9.70498C38.7351 10.8488 39.4451 11.6345 40.6291 11.6345C41.8131 11.6345 42.5248 10.8507 42.5248 9.70498C42.5248 8.55922 41.8143 7.77619 40.6291 7.77619ZM44.7044 13.5165H42.5248V12.5123H42.4925C42.2191 12.8776 41.8644 13.1752 41.4562 13.382C41.0479 13.5888 40.5971 13.6992 40.1389 13.7046C37.8641 13.7046 36.3657 12.0741 36.3657 9.76841C36.3657 7.65079 37.6917 5.70633 39.8715 5.70633C40.8513 5.70633 41.7665 5.97256 42.3034 6.71052H42.3344V2.3457H44.7041L44.7044 13.5165Z" fill="#0A66C2"/>
<path d="M60.6869 13.521H58.3194V9.83876C58.3194 8.9607 58.3036 7.83037 57.0881 7.83037C55.855 7.83037 55.6664 8.78705 55.6664 9.77483V13.5207H53.2989V5.94861H55.5717V6.98342H55.6035C55.8309 6.59718 56.1596 6.27944 56.5545 6.06405C56.9494 5.84865 57.3957 5.74366 57.8459 5.76026C60.2454 5.76026 60.6879 7.32778 60.6879 9.36703L60.6869 13.521ZM50.6276 4.91355C50.3559 4.9136 50.0903 4.83362 49.8643 4.68373C49.6384 4.53384 49.4622 4.32077 49.3582 4.07146C49.2542 3.82215 49.2269 3.54781 49.2799 3.28311C49.3328 3.01842 49.4636 2.77527 49.6557 2.58441C49.8479 2.39355 50.0926 2.26355 50.3591 2.21086C50.6256 2.15816 50.9019 2.18513 51.1529 2.28836C51.404 2.39159 51.6186 2.56644 51.7696 2.7908C51.9206 3.01516 52.0012 3.27896 52.0013 3.54883C52.0013 3.72801 51.9658 3.90545 51.8968 4.07101C51.8278 4.23657 51.7266 4.387 51.599 4.51373C51.4715 4.64046 51.32 4.74099 51.1534 4.80959C50.9867 4.87819 50.8081 4.91352 50.6276 4.91355ZM51.8114 13.521H49.4414V5.94861H51.8114V13.521ZM61.8671 0.00108114H48.2518C47.9428 -0.00238244 47.645 0.116146 47.4239 0.33062C47.2028 0.545094 47.0765 0.837967 47.0728 1.14488V14.7233C47.0764 15.0304 47.2026 15.3234 47.4237 15.5381C47.6448 15.7528 47.9426 15.8716 48.2518 15.8683H61.8671C62.1769 15.8722 62.4756 15.7538 62.6976 15.5391C62.9195 15.3244 63.0466 15.031 63.0509 14.7233V1.1439C63.0464 0.836379 62.9193 0.543173 62.6973 0.328704C62.4754 0.114235 62.1768 -0.00395483 61.8671 0.000101043" fill="#0A66C2"/>
<path d="M64.8691 13.8164C64.5811 13.8192 64.3058 13.9351 64.1036 14.1388C63.9014 14.3426 63.7887 14.6176 63.7901 14.9036C63.7914 15.1897 63.9068 15.4636 64.111 15.6654C64.3152 15.8672 64.5915 15.9805 64.8796 15.9805C65.1676 15.9805 65.4439 15.8672 65.6481 15.6654C65.8523 15.4636 65.9677 15.1897 65.9691 14.9036C65.9705 14.6176 65.8577 14.3426 65.6555 14.1388C65.4533 13.9351 65.1781 13.8192 64.89 13.8164H64.8691ZM64.8691 15.8566C64.6802 15.8598 64.4945 15.8072 64.3357 15.7055C64.1769 15.6039 64.052 15.4577 63.9768 15.2856C63.9016 15.1134 63.8794 14.923 63.9132 14.7383C63.947 14.5537 64.0351 14.3831 64.1665 14.2483C64.2979 14.1134 64.4665 14.0202 64.6512 13.9805C64.8359 13.9409 65.0283 13.9565 65.2041 14.0254C65.3798 14.0943 65.531 14.2134 65.6386 14.3677C65.7462 14.522 65.8053 14.7045 65.8084 14.8921C65.8084 14.8975 65.8084 14.9027 65.8084 14.908C65.8137 15.1542 65.7203 15.3923 65.5489 15.5701C65.3774 15.7479 65.1418 15.8508 64.894 15.8561H64.8693" fill="#0A66C2"/>
</g>
<defs>
<clipPath id="clip0">
<rect width="65.9692" height="16" fill="white"/>
</clipPath>
</defs>
</svg>
