<svg width="12" height="12" viewBox="0 0 12 12" fill="none" xmlns="http://www.w3.org/2000/svg">
<path d="M9.33402 11.3334H2.00069C1.64707 11.3334 1.30793 11.1929 1.05788 10.9429C0.807834 10.6928 0.667358 10.3537 0.667358 10.0001V2.66675C0.667358 2.31313 0.807834 1.97399 1.05788 1.72394C1.30793 1.47389 1.64707 1.33341 2.00069 1.33341H4.66736V2.66675H2.00069V10.0001H9.33402V7.33341H10.6674V10.0001C10.6674 10.3537 10.5269 10.6928 10.2768 10.9429C10.0268 11.1929 9.68765 11.3334 9.33402 11.3334ZM5.80069 7.13808L4.86069 6.19541L9.05602 2.00008H6.66736V0.666748H11.334V5.33341H10.0007V2.94341L5.80069 7.13808Z" fill="#0A66C2"/>
</svg>
