<svg width="34" height="32" viewBox="0 0 34 32" fill="none" xmlns="http://www.w3.org/2000/svg">
<path d="M28 16C28 21.799 22.627 26.5 16 26.5C14.8115 26.5016 13.6279 26.3473 12.4795 26.041C11.6035 26.485 9.592 27.337 6.208 27.892C5.908 27.94 5.68 27.628 5.7985 27.349C6.3295 26.095 6.8095 24.424 6.9535 22.9C5.116 21.055 4 18.64 4 16C4 10.201 9.373 5.5 16 5.5C22.627 5.5 28 10.201 28 16ZM11.5 16C11.5 15.6022 11.342 15.2206 11.0607 14.9393C10.7794 14.658 10.3978 14.5 10 14.5C9.60218 14.5 9.22064 14.658 8.93934 14.9393C8.65804 15.2206 8.5 15.6022 8.5 16C8.5 16.3978 8.65804 16.7794 8.93934 17.0607C9.22064 17.342 9.60218 17.5 10 17.5C10.3978 17.5 10.7794 17.342 11.0607 17.0607C11.342 16.7794 11.5 16.3978 11.5 16ZM17.5 16C17.5 15.6022 17.342 15.2206 17.0607 14.9393C16.7794 14.658 16.3978 14.5 16 14.5C15.6022 14.5 15.2206 14.658 14.9393 14.9393C14.658 15.2206 14.5 15.6022 14.5 16C14.5 16.3978 14.658 16.7794 14.9393 17.0607C15.2206 17.342 15.6022 17.5 16 17.5C16.3978 17.5 16.7794 17.342 17.0607 17.0607C17.342 16.7794 17.5 16.3978 17.5 16ZM22 17.5C22.3978 17.5 22.7794 17.342 23.0607 17.0607C23.342 16.7794 23.5 16.3978 23.5 16C23.5 15.6022 23.342 15.2206 23.0607 14.9393C22.7794 14.658 22.3978 14.5 22 14.5C21.6022 14.5 21.2206 14.658 20.9393 14.9393C20.658 15.2206 20.5 15.6022 20.5 16C20.5 16.3978 20.658 16.7794 20.9393 17.0607C21.2206 17.342 21.6022 17.5 22 17.5Z" fill="white"/>
<rect x="18" y="4" width="16" height="12" rx="6" fill="#E15147"/>
<path d="M26.0024 12.0597C26.9463 12.0597 27.6217 11.5398 27.6238 10.8303C27.6217 10.2848 27.219 9.82884 26.7119 9.74361V9.71378C27.153 9.61577 27.4598 9.21946 27.4619 8.74645C27.4598 8.07528 26.8419 7.5767 26.0024 7.5767C25.1565 7.5767 24.5386 8.07315 24.5407 8.74645C24.5386 9.21946 24.8412 9.61577 25.2907 9.71378V9.74361C24.7751 9.82884 24.3767 10.2848 24.3788 10.8303C24.3767 11.5398 25.05 12.0597 26.0024 12.0597ZM26.0024 11.4503C25.5081 11.4503 25.1885 11.1776 25.1927 10.7749C25.1885 10.3572 25.5315 10.0611 26.0024 10.0611C26.4669 10.0611 26.8078 10.3594 26.8121 10.7749C26.8078 11.1776 26.4903 11.4503 26.0024 11.4503ZM26.0024 9.46236C25.5976 9.46236 25.3078 9.20028 25.3121 8.82102C25.3078 8.44602 25.589 8.1946 26.0024 8.1946C26.4094 8.1946 26.6885 8.44602 26.6927 8.82102C26.6885 9.20241 26.4008 9.46236 26.0024 9.46236Z" fill="white"/>
</svg>
